<svg xmlns="http://www.w3.org/2000/svg" width="1400" height="420" viewBox="0 0 1400 420" fill="none">
  <rect width="1400" height="420" rx="28" fill="#FFFFFF"/>
  <rect x="22" y="22" width="1356" height="376" rx="24" fill="#FBFCFA" stroke="#DCE5DA"/>
  <rect x="46" y="88" width="1308" height="244" rx="18" fill="#FFFFFF" stroke="#E2EAE0"/>
  <rect x="68" y="115" width="220" height="146" rx="10" fill="#003399"/>
  <polygon points="178.00,132.00 180.47,138.60 187.51,138.91 181.99,143.30 183.88,150.09 178.00,146.20 172.12,150.09 174.01,143.30 168.49,138.91 175.53,138.60" fill="#FFCC00"/><polygon points="201.00,138.16 203.47,144.76 210.51,145.07 204.99,149.46 206.88,156.25 201.00,152.36 195.12,156.25 197.01,149.46 191.49,145.07 198.53,144.76" fill="#FFCC00"/><polygon points="217.84,155.00 220.31,161.60 227.35,161.91 221.83,166.30 223.72,173.09 217.84,169.20 211.96,173.09 213.84,166.30 208.33,161.91 215.37,161.60" fill="#FFCC00"/><polygon points="224.00,178.00 226.47,184.60 233.51,184.91 227.99,189.30 229.88,196.09 224.00,192.20 218.12,196.09 220.01,189.30 214.49,184.91 221.53,184.60" fill="#FFCC00"/><polygon points="217.84,201.00 220.31,207.60 227.35,207.91 221.83,212.30 223.72,219.09 217.84,215.20 211.96,219.09 213.84,212.30 208.33,207.91 215.37,207.60" fill="#FFCC00"/><polygon points="201.00,217.84 203.47,224.44 210.51,224.75 204.99,229.14 206.88,235.93 201.00,232.04 195.12,235.93 197.01,229.14 191.49,224.75 198.53,224.44" fill="#FFCC00"/><polygon points="178.00,224.00 180.47,230.60 187.51,230.91 181.99,235.30 183.88,242.09 178.00,238.20 172.12,242.09 174.01,235.30 168.49,230.91 175.53,230.60" fill="#FFCC00"/><polygon points="155.00,217.84 157.47,224.44 164.51,224.75 158.99,229.14 160.88,235.93 155.00,232.04 149.12,235.93 151.01,229.14 145.49,224.75 152.53,224.44" fill="#FFCC00"/><polygon points="138.16,201.00 140.63,207.60 147.67,207.91 142.16,212.30 144.04,219.09 138.16,215.20 132.28,219.09 134.17,212.30 128.65,207.91 135.69,207.60" fill="#FFCC00"/><polygon points="132.00,178.00 134.47,184.60 141.51,184.91 135.99,189.30 137.88,196.09 132.00,192.20 126.12,196.09 128.01,189.30 122.49,184.91 129.53,184.60" fill="#FFCC00"/><polygon points="138.16,155.00 140.63,161.60 147.67,161.91 142.16,166.30 144.04,173.09 138.16,169.20 132.28,173.09 134.17,166.30 128.65,161.91 135.69,161.60" fill="#FFCC00"/><polygon points="155.00,138.16 157.47,144.76 164.51,145.07 158.99,149.46 160.88,156.25 155.00,152.36 149.12,156.25 151.01,149.46 145.49,145.07 152.53,144.76" fill="#FFCC00"/>
  <text x="340" y="176" fill="#0F2F59" font-family="Arial, Helvetica, sans-serif" font-size="54" font-weight="700">Co-funded by the</text>
  <text x="340" y="244" fill="#0F2F59" font-family="Arial, Helvetica, sans-serif" font-size="54" font-weight="700">European Union</text>
  <rect x="340" y="276" width="390" height="7" rx="3.5" fill="#E8ECF2"/>
  <rect x="340" y="294" width="290" height="7" rx="3.5" fill="#E8ECF2"/>
</svg>