<svg xmlns="http://www.w3.org/2000/svg" viewBox="0 0 1200 520" role="img" aria-labelledby="title desc">
  <title id="title">EYSAE institutional banner</title>
  <desc id="desc">Institutional visual for Erasmus Plus project communication with EU-inspired shapes.</desc>
  <rect width="1200" height="520" rx="36" fill="#f6f8f4"/>
  <rect x="34" y="34" width="1132" height="452" rx="34" fill="#ffffff" stroke="#d8e2d7" stroke-width="3"/>
  <rect x="84" y="138" width="220" height="160" rx="18" fill="#183b77"/>
  <rect x="116" y="170" width="98" height="98" rx="16" fill="#ffffff"/>
  <rect x="141" y="196" width="48" height="48" rx="4" fill="#1b4da1"/>
  <g fill="#efc84a" transform="translate(165 220)">
    <circle cx="0" cy="-18" r="4"/><circle cx="9" cy="-15" r="4"/><circle cx="15" cy="-7" r="4"/><circle cx="18" cy="2" r="4"/>
    <circle cx="15" cy="11" r="4"/><circle cx="8" cy="18" r="4"/><circle cx="0" cy="20" r="4"/><circle cx="-9" cy="18" r="4"/>
    <circle cx="-15" cy="11" r="4"/><circle cx="-18" cy="2" r="4"/><circle cx="-15" cy="-7" r="4"/><circle cx="-8" cy="-15" r="4"/>
  </g>
  <rect x="356" y="156" width="190" height="18" rx="9" fill="#efc84a" opacity="0.24"/>
  <rect x="356" y="204" width="576" height="34" rx="17" fill="#183b77" opacity="0.94"/>
  <rect x="356" y="254" width="442" height="34" rx="17" fill="#183b77" opacity="0.94"/>
  <rect x="356" y="316" width="548" height="22" rx="11" fill="#7f9187" opacity="0.28"/>
  <rect x="356" y="354" width="512" height="22" rx="11" fill="#7f9187" opacity="0.18"/>
  <rect x="922" y="132" width="162" height="254" rx="26" fill="#f5f7f3" stroke="#dbe3da" stroke-width="3"/>
  <circle cx="1003" cy="208" r="38" fill="#53a865"/>
  <path d="M974 242 C1000 194, 1027 169, 1060 146" fill="none" stroke="#ffffff" stroke-width="6" stroke-linecap="round"/>
  <path d="M970 308 H1038" stroke="#183b77" stroke-width="10" stroke-linecap="round"/>
  <path d="M970 336 H1058" stroke="#53a865" stroke-width="10" stroke-linecap="round"/>
</svg>