<svg xmlns="http://www.w3.org/2000/svg" viewBox="0 0 1200 520">
  <rect width="1200" height="520" rx="36" fill="#f6f8f4"/>
  <rect x="34" y="34" width="1132" height="452" rx="34" fill="#ffffff" stroke="#d8e2d7" stroke-width="3"/>
  <rect x="84" y="138" width="220" height="160" rx="18" fill="#183b77"/>
  <rect x="116" y="170" width="98" height="98" rx="16" fill="#ffffff"/>
  <rect x="141" y="196" width="48" height="48" rx="4" fill="#1b4da1"/>
  <g fill="#efc84a" transform="translate(165 220)">
    <circle cx="0" cy="-18" r="4"/><circle cx="9" cy="-15" r="4"/><circle cx="15" cy="-7" r="4"/><circle cx="18" cy="2" r="4"/>
    <circle cx="15" cy="11" r="4"/><circle cx="8" cy="18" r="4"/><circle cx="0" cy="20" r="4"/><circle cx="-9" cy="18" r="4"/>
    <circle cx="-15" cy="11" r="4"/><circle cx="-18" cy="2" r="4"/><circle cx="-15" cy="-7" r="4"/><circle cx="-8" cy="-15" r="4"/>
  </g>
  <text x="356" y="175" font-size="28" font-weight="800" fill="#efc84a" font-family="Inter, Arial" letter-spacing="1">PROJECT FRAMEWORK</text>
  <text x="356" y="238" font-size="54" font-weight="800" fill="#183b77" font-family="Inter, Arial">Implemented within the Erasmus+ cooperation framework</text>
  <text x="356" y="298" font-size="22" fill="#5c6f67" font-family="Inter, Arial">This visual is prepared for official EYSAE communication, partnership visibility,</text>
  <text x="356" y="330" font-size="22" fill="#5c6f67" font-family="Inter, Arial">and public-facing project presentation in a clean institutional style.</text>
</svg>