<svg xmlns="http://www.w3.org/2000/svg" viewBox="0 0 1200 1480">
  <defs>
    <linearGradient id="sky" x1="0" x2="1" y1="0" y2="1">
      <stop offset="0%" stop-color="#eaf0fb"/>
      <stop offset="100%" stop-color="#f7f9fd"/>
    </linearGradient>
    <linearGradient id="ground" x1="0" x2="0" y1="0" y2="1">
      <stop offset="0%" stop-color="#d9ead1"/>
      <stop offset="100%" stop-color="#c0dcb7"/>
    </linearGradient>
  </defs>
  <rect width="1200" height="1480" fill="url(#sky)"/>
  <rect x="0" y="1030" width="1200" height="450" fill="url(#ground)"/>
  <g opacity="0.35" stroke="#2f6c4d" stroke-width="6">
    <path d="M30 1480 L210 1100"/>
    <path d="M220 1480 L420 1080"/>
    <path d="M440 1480 L650 1070"/>
    <path d="M690 1480 L930 1060"/>
    <path d="M930 1480 L1160 1075"/>
  </g>
  <rect x="0" y="120" width="530" height="660" rx="56" fill="#ffffff" opacity="0.93" stroke="#d8e2d7" stroke-width="3"/>
  <rect x="998" y="575" width="180" height="360" rx="28" fill="#ffffff" opacity="0.75"/>
  <circle cx="1115" cy="770" r="74" fill="#e2bc93"/>
  <rect x="1030" y="945" width="60" height="170" fill="#183b77"/>
  <rect x="1105" y="945" width="60" height="170" fill="#183b77"/>
  <g transform="translate(640 760)">
    <ellipse cx="120" cy="80" rx="128" ry="54" fill="#53a865"/>
    <ellipse cx="250" cy="40" rx="124" ry="56" fill="#53a865"/>
    <ellipse cx="350" cy="0" rx="118" ry="50" fill="#53a865"/>
    <path d="M40 85 C120 30, 210 30, 295 76" fill="none" stroke="#ffffff" stroke-width="8" stroke-linecap="round"/>
    <path d="M170 38 C250 -10, 330 -10, 410 22" fill="none" stroke="#ffffff" stroke-width="8" stroke-linecap="round"/>
  </g>
  <g transform="translate(54 1106)">
    <rect width="1010" height="248" rx="46" fill="#173127" opacity="0.9"/>
    <text x="56" y="82" fill="#a8b5ae" font-size="44" font-weight="700" font-family="Inter, Arial">APPROACH</text>
    <text x="56" y="160" fill="#ffffff" font-size="66" font-weight="800" font-family="Inter, Arial">international learning and local impact</text>
  </g>
</svg>