<svg xmlns="http://www.w3.org/2000/svg" viewBox="0 0 1600 900" role="img" aria-labelledby="t d">
  <title id="t">EYSAE news visual - visibility and outreach</title>
  <desc id="d">Minimal visibility visual with a megaphone and communication pulse in EYSAE brand colours.</desc>
  <defs>
    <linearGradient id="bg3" x1="0" y1="0" x2="1" y2="1">
      <stop offset="0%" stop-color="#eef4fb"/>
      <stop offset="100%" stop-color="#f7f8f3"/>
    </linearGradient>
    <linearGradient id="panel3" x1="0" y1="0" x2="1" y2="0">
      <stop offset="0%" stop-color="#173b77"/>
      <stop offset="100%" stop-color="#1d4688"/>
    </linearGradient>
  </defs>
  <rect width="1600" height="900" rx="36" fill="url(#bg3)"/>
  <circle cx="1388" cy="126" r="108" fill="#e9efe1"/>
  <circle cx="170" cy="762" r="180" fill="#e6eff8"/>
  <rect x="78" y="88" width="1444" height="724" rx="28" fill="#ffffff" stroke="#dbe5ef" stroke-width="4"/>
  <rect x="116" y="126" width="310" height="648" rx="28" fill="url(#panel3)"/>
  <path d="M190 310 L322 258 V470 L190 418 Z" fill="#efc84a"/>
  <rect x="322" y="336" width="54" height="56" fill="#fff7e6"/>
  <path d="M378 364 H460" stroke="#ffffff" stroke-width="14" stroke-linecap="round"/>
  <path d="M414 298 L470 264" stroke="#ffffff" stroke-width="10" stroke-linecap="round"/>
  <path d="M414 430 L470 464" stroke="#ffffff" stroke-width="10" stroke-linecap="round"/>
  <path d="M282 478 V560" stroke="#efc84a" stroke-width="18" stroke-linecap="round"/>
  <rect x="236" y="548" width="92" height="56" rx="18" fill="#53a865"/>
  <path d="M576 274 C660 244, 734 244, 812 274" fill="none" stroke="#d7e4ef" stroke-width="14" stroke-linecap="round"/>
  <path d="M862 258 C968 228, 1082 244, 1188 308" fill="none" stroke="#dce7d4" stroke-width="14" stroke-linecap="round"/>
  <circle cx="832" cy="276" r="16" fill="#53a865"/>
  <circle cx="1204" cy="318" r="16" fill="#efc84a"/>
  <rect x="554" y="238" width="162" height="24" rx="12" fill="#2f65c6" opacity="0.16"/>
  <rect x="554" y="286" width="526" height="36" rx="18" fill="#173b77" opacity="0.92"/>
  <rect x="554" y="346" width="574" height="36" rx="18" fill="#173b77" opacity="0.92"/>
  <rect x="554" y="406" width="426" height="22" rx="11" fill="#7f9187" opacity="0.30"/>
  <rect x="554" y="446" width="384" height="22" rx="11" fill="#7f9187" opacity="0.22"/>
</svg>