<svg xmlns="http://www.w3.org/2000/svg" viewBox="0 0 1600 900" role="img" aria-labelledby="t d">
  <title id="t">EYSAE news visual - mobility preparation</title>
  <desc id="d">Minimal mobility preparation visual with luggage, route marks and soft editorial layout.</desc>
  <defs>
    <linearGradient id="bg2" x1="0" y1="0" x2="1" y2="1">
      <stop offset="0%" stop-color="#edf3fb"/>
      <stop offset="100%" stop-color="#f4f7ef"/>
    </linearGradient>
    <linearGradient id="panel2" x1="0" y1="0" x2="1" y2="0">
      <stop offset="0%" stop-color="#173b77"/>
      <stop offset="100%" stop-color="#1d4688"/>
    </linearGradient>
  </defs>
  <rect width="1600" height="900" rx="36" fill="url(#bg2)"/>
  <circle cx="1380" cy="140" r="118" fill="#e7efe0"/>
  <circle cx="250" cy="770" r="190" fill="#eaf2f9"/>
  <rect x="78" y="88" width="1444" height="724" rx="28" fill="#ffffff" stroke="#dbe5ef" stroke-width="4"/>
  <rect x="116" y="126" width="310" height="648" rx="28" fill="url(#panel2)"/>
  <rect x="184" y="248" width="172" height="214" rx="18" fill="#efc84a"/>
  <rect x="220" y="202" width="100" height="42" rx="21" fill="none" stroke="#ffffff" stroke-width="14"/>
  <circle cx="232" cy="520" r="26" fill="#53a865"/>
  <circle cx="308" cy="520" r="26" fill="#53a865"/>
  <path d="M190 590 H350" stroke="#ffffff" stroke-width="12" stroke-linecap="round"/>
  <path d="M562 274 C706 214, 848 222, 958 324" fill="none" stroke="#d7e4ef" stroke-width="14" stroke-linecap="round" stroke-dasharray="14 24"/>
  <path d="M968 332 l-38 -10 16 36" fill="none" stroke="#173b77" stroke-width="12" stroke-linecap="round" stroke-linejoin="round"/>
  <circle cx="562" cy="274" r="18" fill="#53a865"/>
  <circle cx="968" cy="332" r="18" fill="#efc84a"/>
  <rect x="554" y="238" width="234" height="24" rx="12" fill="#53a865" opacity="0.18"/>
  <rect x="554" y="286" width="470" height="36" rx="18" fill="#173b77" opacity="0.92"/>
  <rect x="554" y="346" width="548" height="36" rx="18" fill="#173b77" opacity="0.92"/>
  <rect x="554" y="406" width="418" height="22" rx="11" fill="#7f9187" opacity="0.30"/>
  <rect x="554" y="446" width="356" height="22" rx="11" fill="#7f9187" opacity="0.22"/>
  <rect x="1110" y="492" width="176" height="132" rx="18" fill="#f2f6fb" stroke="#dbe5ef" stroke-width="4"/>
  <rect x="1140" y="526" width="116" height="12" rx="6" fill="#173b77" opacity="0.85"/>
  <rect x="1140" y="556" width="90" height="12" rx="6" fill="#53a865" opacity="0.85"/>
  <rect x="1140" y="586" width="72" height="12" rx="6" fill="#efc84a" opacity="0.85"/>
</svg>