<svg xmlns="http://www.w3.org/2000/svg" viewBox="0 0 1600 900" role="img" aria-labelledby="t d">
  <title id="t">EYSAE news visual - project launch</title>
  <desc id="d">Minimal project launch visual with a seedling, sun and structured layout in EYSAE brand colours.</desc>
  <defs>
    <linearGradient id="bg1" x1="0" y1="0" x2="1" y2="1">
      <stop offset="0%" stop-color="#edf3fb"/>
      <stop offset="100%" stop-color="#f6f8f2"/>
    </linearGradient>
    <linearGradient id="panel1" x1="0" y1="0" x2="1" y2="0">
      <stop offset="0%" stop-color="#173b77"/>
      <stop offset="100%" stop-color="#214b93"/>
    </linearGradient>
  </defs>
  <rect width="1600" height="900" rx="36" fill="url(#bg1)"/>
  <circle cx="1450" cy="120" r="110" fill="#e7eddc" opacity="0.9"/>
  <circle cx="180" cy="760" r="180" fill="#e2ecda" opacity="0.9"/>
  <rect x="78" y="88" width="1444" height="724" rx="28" fill="#ffffff" stroke="#dbe5ef" stroke-width="4"/>
  <rect x="116" y="126" width="310" height="648" rx="28" fill="url(#panel1)"/>
  <circle cx="270" cy="266" r="112" fill="#efc84a"/>
  <rect x="246" y="212" width="48" height="216" rx="8" fill="#fffaf0"/>
  <path d="M270 126 L334 238 H206 Z" fill="#fffaf0"/>
  <path d="M184 454 H356 L270 618 Z" fill="#4da861"/>
  <path d="M640 328c74-88 190-126 320-102 118 22 198 90 252 180" fill="none" stroke="#d8e3ef" stroke-width="14" stroke-linecap="round"/>
  <path d="M628 510c92-68 208-92 326-66 88 20 158 64 218 134" fill="none" stroke="#dce7d4" stroke-width="14" stroke-linecap="round"/>
  <circle cx="1160" cy="314" r="14" fill="#efc84a"/>
  <circle cx="1000" cy="536" r="14" fill="#53a865"/>
  <circle cx="1260" cy="560" r="14" fill="#173b77" opacity="0.75"/>
  <rect x="554" y="238" width="200" height="24" rx="12" fill="#efc84a" opacity="0.18"/>
  <rect x="554" y="286" width="438" height="36" rx="18" fill="#173b77" opacity="0.92"/>
  <rect x="554" y="346" width="516" height="36" rx="18" fill="#173b77" opacity="0.92"/>
  <rect x="554" y="406" width="396" height="22" rx="11" fill="#7f9187" opacity="0.30"/>
  <rect x="554" y="446" width="332" height="22" rx="11" fill="#7f9187" opacity="0.22"/>
</svg>